<mxfile host="65bd71144e">
    <diagram id="tv39V_c9GUA5fFCuqizI" name="페이지-1">
        <mxGraphModel dx="939" dy="905" grid="1" gridSize="10" guides="1" tooltips="1" connect="1" arrows="1" fold="1" page="1" pageScale="1" pageWidth="827" pageHeight="1169" math="0" shadow="0">
            <root>
                <mxCell id="0"/>
                <mxCell id="1" parent="0"/>
                <mxCell id="2" value="" style="endArrow=classic;startArrow=classic;html=1;" edge="1" parent="1">
                    <mxGeometry width="50" height="50" relative="1" as="geometry">
                        <mxPoint x="120" y="320" as="sourcePoint"/>
                        <mxPoint x="680" y="320" as="targetPoint"/>
                    </mxGeometry>
                </mxCell>
                <mxCell id="3" value="&lt;b&gt;높은 비용&lt;/b&gt;" style="text;html=1;strokeColor=none;fillColor=none;align=center;verticalAlign=middle;whiteSpace=wrap;rounded=0;fontColor=#990000;" vertex="1" parent="1">
                    <mxGeometry x="620" y="320" width="60" height="30" as="geometry"/>
                </mxCell>
                <mxCell id="4" value="&lt;b&gt;낮은 비용&lt;/b&gt;" style="text;html=1;strokeColor=none;fillColor=none;align=center;verticalAlign=middle;whiteSpace=wrap;rounded=0;fontColor=#000099;" vertex="1" parent="1">
                    <mxGeometry x="120" y="320" width="60" height="30" as="geometry"/>
                </mxCell>
                <mxCell id="5" value="" style="endArrow=classic;startArrow=classic;html=1;" edge="1" parent="1">
                    <mxGeometry width="50" height="50" relative="1" as="geometry">
                        <mxPoint x="400" y="520" as="sourcePoint"/>
                        <mxPoint x="400" y="120" as="targetPoint"/>
                    </mxGeometry>
                </mxCell>
                <mxCell id="6" value="&lt;b&gt;높은 근접성 필요&lt;/b&gt;" style="text;html=1;strokeColor=none;fillColor=none;align=center;verticalAlign=middle;whiteSpace=wrap;rounded=0;fontColor=#990000;" vertex="1" parent="1">
                    <mxGeometry x="400" y="490" width="110" height="30" as="geometry"/>
                </mxCell>
                <mxCell id="7" value="&lt;b&gt;낮은 근접성 필요&lt;/b&gt;" style="text;html=1;strokeColor=none;fillColor=none;align=center;verticalAlign=middle;whiteSpace=wrap;rounded=0;fontColor=#0000CC;" vertex="1" parent="1">
                    <mxGeometry x="400" y="120" width="110" height="30" as="geometry"/>
                </mxCell>
                <mxCell id="8" value="코드" style="text;html=1;strokeColor=none;fillColor=none;align=center;verticalAlign=middle;whiteSpace=wrap;rounded=0;fontStyle=1" vertex="1" parent="1">
                    <mxGeometry x="120" y="130" width="60" height="30" as="geometry"/>
                </mxCell>
                <mxCell id="9" value="주석" style="text;html=1;strokeColor=none;fillColor=none;align=center;verticalAlign=middle;whiteSpace=wrap;rounded=0;fontStyle=1" vertex="1" parent="1">
                    <mxGeometry x="130" y="150" width="60" height="30" as="geometry"/>
                </mxCell>
                <mxCell id="10" value="버전 관리 이력" style="text;html=1;strokeColor=none;fillColor=none;align=center;verticalAlign=middle;whiteSpace=wrap;rounded=0;fontStyle=1" vertex="1" parent="1">
                    <mxGeometry x="160" y="170" width="90" height="30" as="geometry"/>
                </mxCell>
                <mxCell id="11" value="테스트" style="text;html=1;strokeColor=none;fillColor=none;align=center;verticalAlign=middle;whiteSpace=wrap;rounded=0;fontStyle=1" vertex="1" parent="1">
                    <mxGeometry x="270" y="140" width="90" height="30" as="geometry"/>
                </mxCell>
                <mxCell id="12" value="위키" style="text;html=1;strokeColor=none;fillColor=none;align=center;verticalAlign=middle;whiteSpace=wrap;rounded=0;fontStyle=1" vertex="1" parent="1">
                    <mxGeometry x="320" y="180" width="90" height="30" as="geometry"/>
                </mxCell>
                <mxCell id="13" value="프로젝트 문서" style="text;html=1;strokeColor=none;fillColor=none;align=center;verticalAlign=middle;whiteSpace=wrap;rounded=0;fontStyle=1" vertex="1" parent="1">
                    <mxGeometry x="260" y="220" width="90" height="30" as="geometry"/>
                </mxCell>
                <mxCell id="14" value="설계 문서" style="text;html=1;strokeColor=none;fillColor=none;align=center;verticalAlign=middle;whiteSpace=wrap;rounded=0;fontStyle=1" vertex="1" parent="1">
                    <mxGeometry x="430" y="190" width="90" height="30" as="geometry"/>
                </mxCell>
                <mxCell id="15" value="애자일 보드" style="text;html=1;strokeColor=none;fillColor=none;align=center;verticalAlign=middle;whiteSpace=wrap;rounded=0;fontStyle=1" vertex="1" parent="1">
                    <mxGeometry x="420" y="250" width="90" height="30" as="geometry"/>
                </mxCell>
                <mxCell id="16" value="이메일" style="text;html=1;strokeColor=none;fillColor=none;align=center;verticalAlign=middle;whiteSpace=wrap;rounded=0;fontStyle=1" vertex="1" parent="1">
                    <mxGeometry x="400" y="280" width="90" height="30" as="geometry"/>
                </mxCell>
                <mxCell id="17" value="영상 녹화" style="text;html=1;strokeColor=none;fillColor=none;align=center;verticalAlign=middle;whiteSpace=wrap;rounded=0;fontStyle=1" vertex="1" parent="1">
                    <mxGeometry x="550" y="160" width="90" height="30" as="geometry"/>
                </mxCell>
                <mxCell id="18" value="잡담" style="text;html=1;strokeColor=none;fillColor=none;align=center;verticalAlign=middle;whiteSpace=wrap;rounded=0;fontStyle=1" vertex="1" parent="1">
                    <mxGeometry x="520" y="370" width="90" height="30" as="geometry"/>
                </mxCell>
                <mxCell id="19" value="회의" style="text;html=1;strokeColor=none;fillColor=none;align=center;verticalAlign=middle;whiteSpace=wrap;rounded=0;fontStyle=1" vertex="1" parent="1">
                    <mxGeometry x="580" y="470" width="90" height="30" as="geometry"/>
                </mxCell>
                <mxCell id="20" value="코드 리뷰" style="text;html=1;strokeColor=none;fillColor=none;align=center;verticalAlign=middle;whiteSpace=wrap;rounded=0;fontStyle=1" vertex="1" parent="1">
                    <mxGeometry x="420" y="420" width="90" height="30" as="geometry"/>
                </mxCell>
                <mxCell id="21" value="인스턴트 메시지" style="text;html=1;strokeColor=none;fillColor=none;align=center;verticalAlign=middle;whiteSpace=wrap;rounded=0;fontStyle=1" vertex="1" parent="1">
                    <mxGeometry x="290" y="330" width="100" height="30" as="geometry"/>
                </mxCell>
                <mxCell id="22" value="대면 미팅" style="text;html=1;strokeColor=none;fillColor=none;align=center;verticalAlign=middle;whiteSpace=wrap;rounded=0;fontStyle=1" vertex="1" parent="1">
                    <mxGeometry x="120" y="480" width="100" height="30" as="geometry"/>
                </mxCell>
                <mxCell id="23" value="소통 방법의 비용 및 근접성 그래프" style="text;html=1;strokeColor=none;fillColor=none;align=center;verticalAlign=middle;whiteSpace=wrap;rounded=0;fontSize=14;fontColor=#000000;fontStyle=1" vertex="1" parent="1">
                    <mxGeometry x="230" y="530" width="330" height="30" as="geometry"/>
                </mxCell>
            </root>
        </mxGraphModel>
    </diagram>
</mxfile>